<svg width="162" height="50" viewBox="0 0 162 50" fill="none" xmlns="http://www.w3.org/2000/svg">
<path d="M28.7679 5.82791L8.47961 24.0012C7.22627 25.1371 7.93127 27.2325 9.61544 27.3892L25.4584 28.9167L15.9604 42.155C15.5296 42.7621 15.5884 43.6042 16.1171 44.1329C16.7046 44.7204 17.625 44.74 18.2321 44.1721L38.5204 25.9987C39.7738 24.8629 39.0688 22.7675 37.3846 22.6108L21.5417 21.0833L31.0396 7.84499C31.4704 7.23791 31.4117 6.39582 30.8829 5.86707C30.6061 5.58432 30.2291 5.42174 29.8335 5.41441C29.4378 5.40709 29.0551 5.5556 28.7679 5.82791V5.82791Z" fill="#FEFEFE"/>
<path d="M77.92 12.2C80.2933 12.2 82.3467 12.6533 84.08 13.56C85.8133 14.44 87.28 15.7467 88.48 17.48L85.6 20.24C84.5867 18.6933 83.44 17.5867 82.16 16.92C80.9067 16.2267 79.4133 15.88 77.68 15.88C76.4 15.88 75.3467 16.0533 74.52 16.4C73.6933 16.7467 73.08 17.2133 72.68 17.8C72.3067 18.36 72.12 19 72.12 19.72C72.12 20.5467 72.4 21.2667 72.96 21.88C73.5467 22.4933 74.6267 22.9733 76.2 23.32L81.56 24.52C84.12 25.08 85.9333 25.9333 87 27.08C88.0667 28.2267 88.6 29.68 88.6 31.44C88.6 33.0667 88.16 34.48 87.28 35.68C86.4 36.88 85.1733 37.8 83.6 38.44C82.0533 39.08 80.2267 39.4 78.12 39.4C76.2533 39.4 74.5733 39.16 73.08 38.68C71.5867 38.2 70.28 37.5467 69.16 36.72C68.04 35.8933 67.12 34.9467 66.4 33.88L69.36 30.92C69.92 31.8533 70.6267 32.6933 71.48 33.44C72.3333 34.16 73.32 34.72 74.44 35.12C75.5867 35.52 76.8533 35.72 78.24 35.72C79.4667 35.72 80.52 35.5733 81.4 35.28C82.3067 34.9867 82.9867 34.56 83.44 34C83.92 33.4133 84.16 32.72 84.16 31.92C84.16 31.1467 83.8933 30.4667 83.36 29.88C82.8533 29.2933 81.8933 28.84 80.48 28.52L74.68 27.2C73.08 26.8533 71.76 26.36 70.72 25.72C69.68 25.08 68.9067 24.3067 68.4 23.4C67.8933 22.4667 67.64 21.4267 67.64 20.28C67.64 18.7867 68.04 17.44 68.84 16.24C69.6667 15.0133 70.8533 14.04 72.4 13.32C73.9467 12.5733 75.7867 12.2 77.92 12.2ZM102.664 18.6C104.611 18.6 106.331 19.0133 107.824 19.84C109.317 20.6667 110.477 21.8667 111.304 23.44C112.157 24.9867 112.584 26.84 112.584 29C112.584 31.16 112.157 33.0267 111.304 34.6C110.477 36.1467 109.317 37.3333 107.824 38.16C106.331 38.9867 104.611 39.4 102.664 39.4C100.717 39.4 98.9974 38.9867 97.5041 38.16C96.0107 37.3333 94.8374 36.1467 93.9841 34.6C93.1307 33.0267 92.7041 31.16 92.7041 29C92.7041 26.84 93.1307 24.9867 93.9841 23.44C94.8374 21.8667 96.0107 20.6667 97.5041 19.84C98.9974 19.0133 100.717 18.6 102.664 18.6ZM102.664 21.96C101.464 21.96 100.437 22.24 99.5841 22.8C98.7574 23.3333 98.1174 24.12 97.6641 25.16C97.2107 26.2 96.9841 27.48 96.9841 29C96.9841 30.4933 97.2107 31.7733 97.6641 32.84C98.1174 33.88 98.7574 34.68 99.5841 35.24C100.437 35.7733 101.464 36.04 102.664 36.04C103.864 36.04 104.877 35.7733 105.704 35.24C106.531 34.68 107.171 33.88 107.624 32.84C108.077 31.7733 108.304 30.4933 108.304 29C108.304 27.48 108.077 26.2 107.624 25.16C107.171 24.12 106.531 23.3333 105.704 22.8C104.877 22.24 103.864 21.96 102.664 21.96ZM117.968 39V19H121.768L121.968 22.36C122.662 21.08 123.582 20.1333 124.728 19.52C125.902 18.9067 127.142 18.6 128.448 18.6C129.888 18.6 131.208 18.9333 132.408 19.6C133.635 20.24 134.555 21.2133 135.168 22.52C135.595 21.64 136.182 20.9067 136.928 20.32C137.675 19.7333 138.502 19.3067 139.408 19.04C140.315 18.7467 141.208 18.6 142.088 18.6C143.368 18.6 144.568 18.8667 145.688 19.4C146.808 19.9333 147.715 20.7467 148.408 21.84C149.102 22.9333 149.448 24.3333 149.448 26.04V39H145.168V26.72C145.168 25.0933 144.782 23.92 144.008 23.2C143.235 22.48 142.248 22.12 141.048 22.12C140.115 22.12 139.248 22.3467 138.448 22.8C137.675 23.2533 137.048 23.9333 136.568 24.84C136.088 25.72 135.848 26.8133 135.848 28.12V39H131.568V26.72C131.568 25.0933 131.182 23.92 130.408 23.2C129.635 22.48 128.648 22.12 127.448 22.12C126.648 22.12 125.848 22.3333 125.048 22.76C124.248 23.1867 123.582 23.8533 123.048 24.76C122.515 25.6667 122.248 26.8667 122.248 28.36V39H117.968ZM158.097 33.6C159.004 33.6 159.724 33.8667 160.257 34.4C160.817 34.9067 161.097 35.6 161.097 36.48C161.097 37.36 160.817 38.0667 160.257 38.6C159.724 39.1333 159.004 39.4 158.097 39.4C157.164 39.4 156.417 39.1333 155.857 38.6C155.324 38.0667 155.057 37.36 155.057 36.48C155.057 35.6 155.324 34.9067 155.857 34.4C156.417 33.8667 157.164 33.6 158.097 33.6Z" fill="white"/>
</svg>
